mtllib anchor.mtl
o AnchorSphere
v 0.000000 1.000000 0.000000
v 0.000000 0.980785 0.195090
v 0.050493 0.980785 0.188443
v 0.097545 0.980785 0.168953
v 0.137950 0.980785 0.137950
v 0.168953 0.980785 0.097545
v 0.188443 0.980785 0.050493
v 0.195090 0.980785 0.000000
v 0.188443 0.980785 -0.050493
v 0.168953 0.980785 -0.097545
v 0.137950 0.980785 -0.137950
v 0.097545 0.980785 -0.168953
v 0.050493 0.980785 -0.188443
v 0.000000 0.980785 -0.195090
v -0.050493 0.980785 -0.188443
v -0.097545 0.980785 -0.168953
v -0.137950 0.980785 -0.137950
v -0.168953 0.980785 -0.097545
v -0.188443 0.980785 -0.050493
v -0.195090 0.980785 -0.000000
v -0.188443 0.980785 0.050493
v -0.168953 0.980785 0.097545
v -0.137950 0.980785 0.137950
v -0.097545 0.980785 0.168953
v -0.050493 0.980785 0.188443
v 0.000000 0.923880 0.382683
v 0.099046 0.923880 0.369644
v 0.191342 0.923880 0.331414
v 0.270598 0.923880 0.270598
v 0.331414 0.923880 0.191342
v 0.369644 0.923880 0.099046
v 0.382683 0.923880 0.000000
v 0.369644 0.923880 -0.099046
v 0.331414 0.923880 -0.191342
v 0.270598 0.923880 -0.270598
v 0.191342 0.923880 -0.331414
v 0.099046 0.923880 -0.369644
v 0.000000 0.923880 -0.382683
v -0.099046 0.923880 -0.369644
v -0.191342 0.923880 -0.331414
v -0.270598 0.923880 -0.270598
v -0.331414 0.923880 -0.191342
v -0.369644 0.923880 -0.099046
v -0.382683 0.923880 -0.000000
v -0.369644 0.923880 0.099046
v -0.331414 0.923880 0.191342
v -0.270598 0.923880 0.270598
v -0.191342 0.923880 0.331414
v -0.099046 0.923880 0.369644
v 0.000000 0.831470 0.555570
v 0.143792 0.831470 0.536640
v 0.277785 0.831470 0.481138
v 0.392847 0.831470 0.392847
v 0.481138 0.831470 0.277785
v 0.536640 0.831470 0.143792
v 0.555570 0.831470 0.000000
v 0.536640 0.831470 -0.143792
v 0.481138 0.831470 -0.277785
v 0.392847 0.831470 -0.392847
v 0.277785 0.831470 -0.481138
v 0.143792 0.831470 -0.536640
v 0.000000 0.831470 -0.555570
v -0.143792 0.831470 -0.536640
v -0.277785 0.831470 -0.481138
v -0.392847 0.831470 -0.392847
v -0.481138 0.831470 -0.277785
v -0.536640 0.831470 -0.143792
v -0.555570 0.831470 -0.000000
v -0.536640 0.831470 0.143792
v -0.481138 0.831470 0.277785
v -0.392847 0.831470 0.392847
v -0.277785 0.831470 0.481138
v -0.143792 0.831470 0.536640
v 0.000000 0.707107 0.707107
v 0.183013 0.707107 0.683013
v 0.353553 0.707107 0.612372
v 0.500000 0.707107 0.500000
v 0.612372 0.707107 0.353553
v 0.683013 0.707107 0.183013
v 0.707107 0.707107 0.000000
v 0.683013 0.707107 -0.183013
v 0.612372 0.707107 -0.353553
v 0.500000 0.707107 -0.500000
v 0.353553 0.707107 -0.612372
v 0.183013 0.707107 -0.683013
v 0.000000 0.707107 -0.707107
v -0.183013 0.707107 -0.683013
v -0.353553 0.707107 -0.612372
v -0.500000 0.707107 -0.500000
v -0.612372 0.707107 -0.353553
v -0.683013 0.707107 -0.183013
v -0.707107 0.707107 -0.000000
v -0.683013 0.707107 0.183013
v -0.612372 0.707107 0.353553
v -0.500000 0.707107 0.500000
v -0.353553 0.707107 0.612372
v -0.183013 0.707107 0.683013
v 0.000000 0.555570 0.831470
v 0.215200 0.555570 0.803138
v 0.415735 0.555570 0.720074
v 0.587938 0.555570 0.587938
v 0.720074 0.555570 0.415735
v 0.803138 0.555570 0.215200
v 0.831470 0.555570 0.000000
v 0.803138 0.555570 -0.215200
v 0.720074 0.555570 -0.415735
v 0.587938 0.555570 -0.587938
v 0.415735 0.555570 -0.720074
v 0.215200 0.555570 -0.803138
v 0.000000 0.555570 -0.831470
v -0.215200 0.555570 -0.803138
v -0.415735 0.555570 -0.720074
v -0.587938 0.555570 -0.587938
v -0.720074 0.555570 -0.415735
v -0.803138 0.555570 -0.215200
v -0.831470 0.555570 -0.000000
v -0.803138 0.555570 0.215200
v -0.720074 0.555570 0.415735
v -0.587938 0.555570 0.587938
v -0.415735 0.555570 0.720074
v -0.215200 0.555570 0.803138
v 0.000000 0.382683 0.923880
v 0.239118 0.382683 0.892399
v 0.461940 0.382683 0.800103
v 0.653281 0.382683 0.653281
v 0.800103 0.382683 0.461940
v 0.892399 0.382683 0.239118
v 0.923880 0.382683 0.000000
v 0.892399 0.382683 -0.239118
v 0.800103 0.382683 -0.461940
v 0.653281 0.382683 -0.653281
v 0.461940 0.382683 -0.800103
v 0.239118 0.382683 -0.892399
v 0.000000 0.382683 -0.923880
v -0.239118 0.382683 -0.892399
v -0.461940 0.382683 -0.800103
v -0.653281 0.382683 -0.653281
v -0.800103 0.382683 -0.461940
v -0.892399 0.382683 -0.239118
v -0.923880 0.382683 -0.000000
v -0.892399 0.382683 0.239118
v -0.800103 0.382683 0.461940
v -0.653281 0.382683 0.653281
v -0.461940 0.382683 0.800103
v -0.239118 0.382683 0.892399
v 0.000000 0.195090 0.980785
v 0.253846 0.195090 0.947366
v 0.490393 0.195090 0.849385
v 0.693520 0.195090 0.693520
v 0.849385 0.195090 0.490393
v 0.947366 0.195090 0.253846
v 0.980785 0.195090 0.000000
v 0.947366 0.195090 -0.253846
v 0.849385 0.195090 -0.490393
v 0.693520 0.195090 -0.693520
v 0.490393 0.195090 -0.849385
v 0.253846 0.195090 -0.947366
v 0.000000 0.195090 -0.980785
v -0.253846 0.195090 -0.947366
v -0.490393 0.195090 -0.849385
v -0.693520 0.195090 -0.693520
v -0.849385 0.195090 -0.490393
v -0.947366 0.195090 -0.253846
v -0.980785 0.195090 -0.000000
v -0.947366 0.195090 0.253846
v -0.849385 0.195090 0.490393
v -0.693520 0.195090 0.693520
v -0.490393 0.195090 0.849385
v -0.253846 0.195090 0.947366
v 0.000000 0.000000 1.000000
v 0.258819 0.000000 0.965926
v 0.500000 0.000000 0.866025
v 0.707107 0.000000 0.707107
v 0.866025 0.000000 0.500000
v 0.965926 0.000000 0.258819
v 1.000000 0.000000 0.000000
v 0.965926 0.000000 -0.258819
v 0.866025 0.000000 -0.500000
v 0.707107 0.000000 -0.707107
v 0.500000 0.000000 -0.866025
v 0.258819 0.000000 -0.965926
v 0.000000 0.000000 -1.000000
v -0.258819 0.000000 -0.965926
v -0.500000 0.000000 -0.866025
v -0.707107 0.000000 -0.707107
v -0.866025 0.000000 -0.500000
v -0.965926 0.000000 -0.258819
v -1.000000 0.000000 -0.000000
v -0.965926 0.000000 0.258819
v -0.866025 0.000000 0.500000
v -0.707107 0.000000 0.707107
v -0.500000 0.000000 0.866025
v -0.258819 0.000000 0.965926
v 0.000000 -0.195090 0.980785
v 0.253846 -0.195090 0.947366
v 0.490393 -0.195090 0.849385
v 0.693520 -0.195090 0.693520
v 0.849385 -0.195090 0.490393
v 0.947366 -0.195090 0.253846
v 0.980785 -0.195090 0.000000
v 0.947366 -0.195090 -0.253846
v 0.849385 -0.195090 -0.490393
v 0.693520 -0.195090 -0.693520
v 0.490393 -0.195090 -0.849385
v 0.253846 -0.195090 -0.947366
v 0.000000 -0.195090 -0.980785
v -0.253846 -0.195090 -0.947366
v -0.490393 -0.195090 -0.849385
v -0.693520 -0.195090 -0.693520
v -0.849385 -0.195090 -0.490393
v -0.947366 -0.195090 -0.253846
v -0.980785 -0.195090 -0.000000
v -0.947366 -0.195090 0.253846
v -0.849385 -0.195090 0.490393
v -0.693520 -0.195090 0.693520
v -0.490393 -0.195090 0.849385
v -0.253846 -0.195090 0.947366
v 0.000000 -0.382683 0.923880
v 0.239118 -0.382683 0.892399
v 0.461940 -0.382683 0.800103
v 0.653281 -0.382683 0.653281
v 0.800103 -0.382683 0.461940
v 0.892399 -0.382683 0.239118
v 0.923880 -0.382683 0.000000
v 0.892399 -0.382683 -0.239118
v 0.800103 -0.382683 -0.461940
v 0.653281 -0.382683 -0.653281
v 0.461940 -0.382683 -0.800103
v 0.239118 -0.382683 -0.892399
v 0.000000 -0.382683 -0.923880
v -0.239118 -0.382683 -0.892399
v -0.461940 -0.382683 -0.800103
v -0.653281 -0.382683 -0.653281
v -0.800103 -0.382683 -0.461940
v -0.892399 -0.382683 -0.239118
v -0.923880 -0.382683 -0.000000
v -0.892399 -0.382683 0.239118
v -0.800103 -0.382683 0.461940
v -0.653281 -0.382683 0.653281
v -0.461940 -0.382683 0.800103
v -0.239118 -0.382683 0.892399
v 0.000000 -0.555570 0.831470
v 0.215200 -0.555570 0.803138
v 0.415735 -0.555570 0.720074
v 0.587938 -0.555570 0.587938
v 0.720074 -0.555570 0.415735
v 0.803138 -0.555570 0.215200
v 0.831470 -0.555570 0.000000
v 0.803138 -0.555570 -0.215200
v 0.720074 -0.555570 -0.415735
v 0.587938 -0.555570 -0.587938
v 0.415735 -0.555570 -0.720074
v 0.215200 -0.555570 -0.803138
v 0.000000 -0.555570 -0.831470
v -0.215200 -0.555570 -0.803138
v -0.415735 -0.555570 -0.720074
v -0.587938 -0.555570 -0.587938
v -0.720074 -0.555570 -0.415735
v -0.803138 -0.555570 -0.215200
v -0.831470 -0.555570 -0.000000
v -0.803138 -0.555570 0.215200
v -0.720074 -0.555570 0.415735
v -0.587938 -0.555570 0.587938
v -0.415735 -0.555570 0.720074
v -0.215200 -0.555570 0.803138
v 0.000000 -0.707107 0.707107
v 0.183013 -0.707107 0.683013
v 0.353553 -0.707107 0.612372
v 0.500000 -0.707107 0.500000
v 0.612372 -0.707107 0.353553
v 0.683013 -0.707107 0.183013
v 0.707107 -0.707107 0.000000
v 0.683013 -0.707107 -0.183013
v 0.612372 -0.707107 -0.353553
v 0.500000 -0.707107 -0.500000
v 0.353553 -0.707107 -0.612372
v 0.183013 -0.707107 -0.683013
v 0.000000 -0.707107 -0.707107
v -0.183013 -0.707107 -0.683013
v -0.353553 -0.707107 -0.612372
v -0.500000 -0.707107 -0.500000
v -0.612372 -0.707107 -0.353553
v -0.683013 -0.707107 -0.183013
v -0.707107 -0.707107 -0.000000
v -0.683013 -0.707107 0.183013
v -0.612372 -0.707107 0.353553
v -0.500000 -0.707107 0.500000
v -0.353553 -0.707107 0.612372
v -0.183013 -0.707107 0.683013
v 0.000000 -0.831470 0.555570
v 0.143792 -0.831470 0.536640
v 0.277785 -0.831470 0.481138
v 0.392847 -0.831470 0.392847
v 0.481138 -0.831470 0.277785
v 0.536640 -0.831470 0.143792
v 0.555570 -0.831470 0.000000
v 0.536640 -0.831470 -0.143792
v 0.481138 -0.831470 -0.277785
v 0.392847 -0.831470 -0.392847
v 0.277785 -0.831470 -0.481138
v 0.143792 -0.831470 -0.536640
v 0.000000 -0.831470 -0.555570
v -0.143792 -0.831470 -0.536640
v -0.277785 -0.831470 -0.481138
v -0.392847 -0.831470 -0.392847
v -0.481138 -0.831470 -0.277785
v -0.536640 -0.831470 -0.143792
v -0.555570 -0.831470 -0.000000
v -0.536640 -0.831470 0.143792
v -0.481138 -0.831470 0.277785
v -0.392847 -0.831470 0.392847
v -0.277785 -0.831470 0.481138
v -0.143792 -0.831470 0.536640
v 0.000000 -0.923880 0.382683
v 0.099046 -0.923880 0.369644
v 0.191342 -0.923880 0.331414
v 0.270598 -0.923880 0.270598
v 0.331414 -0.923880 0.191342
v 0.369644 -0.923880 0.099046
v 0.382683 -0.923880 0.000000
v 0.369644 -0.923880 -0.099046
v 0.331414 -0.923880 -0.191342
v 0.270598 -0.923880 -0.270598
v 0.191342 -0.923880 -0.331414
v 0.099046 -0.923880 -0.369644
v 0.000000 -0.923880 -0.382683
v -0.099046 -0.923880 -0.369644
v -0.191342 -0.923880 -0.331414
v -0.270598 -0.923880 -0.270598
v -0.331414 -0.923880 -0.191342
v -0.369644 -0.923880 -0.099046
v -0.382683 -0.923880 -0.000000
v -0.369644 -0.923880 0.099046
v -0.331414 -0.923880 0.191342
v -0.270598 -0.923880 0.270598
v -0.191342 -0.923880 0.331414
v -0.099046 -0.923880 0.369644
v 0.000000 -0.980785 0.195090
v 0.050493 -0.980785 0.188443
v 0.097545 -0.980785 0.168953
v 0.137950 -0.980785 0.137950
v 0.168953 -0.980785 0.097545
v 0.188443 -0.980785 0.050493
v 0.195090 -0.980785 0.000000
v 0.188443 -0.980785 -0.050493
v 0.168953 -0.980785 -0.097545
v 0.137950 -0.980785 -0.137950
v 0.097545 -0.980785 -0.168953
v 0.050493 -0.980785 -0.188443
v 0.000000 -0.980785 -0.195090
v -0.050493 -0.980785 -0.188443
v -0.097545 -0.980785 -0.168953
v -0.137950 -0.980785 -0.137950
v -0.168953 -0.980785 -0.097545
v -0.188443 -0.980785 -0.050493
v -0.195090 -0.980785 -0.000000
v -0.188443 -0.980785 0.050493
v -0.168953 -0.980785 0.097545
v -0.137950 -0.980785 0.137950
v -0.097545 -0.980785 0.168953
v -0.050493 -0.980785 0.188443
v 0.000000 -1.000000 0.000000
vt 0.000000 0.000000
vt 0.041667 0.000000
vt 0.083333 0.000000
vt 0.125000 0.000000
vt 0.166667 0.000000
vt 0.208333 0.000000
vt 0.250000 0.000000
vt 0.291667 0.000000
vt 0.333333 0.000000
vt 0.375000 0.000000
vt 0.416667 0.000000
vt 0.458333 0.000000
vt 0.500000 0.000000
vt 0.541667 0.000000
vt 0.583333 0.000000
vt 0.625000 0.000000
vt 0.666667 0.000000
vt 0.708333 0.000000
vt 0.750000 0.000000
vt 0.791667 0.000000
vt 0.833333 0.000000
vt 0.875000 0.000000
vt 0.916667 0.000000
vt 0.958333 0.000000
vt 1.000000 0.000000
vt 0.000000 0.062500
vt 0.041667 0.062500
vt 0.083333 0.062500
vt 0.125000 0.062500
vt 0.166667 0.062500
vt 0.208333 0.062500
vt 0.250000 0.062500
vt 0.291667 0.062500
vt 0.333333 0.062500
vt 0.375000 0.062500
vt 0.416667 0.062500
vt 0.458333 0.062500
vt 0.500000 0.062500
vt 0.541667 0.062500
vt 0.583333 0.062500
vt 0.625000 0.062500
vt 0.666667 0.062500
vt 0.708333 0.062500
vt 0.750000 0.062500
vt 0.791667 0.062500
vt 0.833333 0.062500
vt 0.875000 0.062500
vt 0.916667 0.062500
vt 0.958333 0.062500
vt 1.000000 0.062500
vt 0.000000 0.125000
vt 0.041667 0.125000
vt 0.083333 0.125000
vt 0.125000 0.125000
vt 0.166667 0.125000
vt 0.208333 0.125000
vt 0.250000 0.125000
vt 0.291667 0.125000
vt 0.333333 0.125000
vt 0.375000 0.125000
vt 0.416667 0.125000
vt 0.458333 0.125000
vt 0.500000 0.125000
vt 0.541667 0.125000
vt 0.583333 0.125000
vt 0.625000 0.125000
vt 0.666667 0.125000
vt 0.708333 0.125000
vt 0.750000 0.125000
vt 0.791667 0.125000
vt 0.833333 0.125000
vt 0.875000 0.125000
vt 0.916667 0.125000
vt 0.958333 0.125000
vt 1.000000 0.125000
vt 0.000000 0.187500
vt 0.041667 0.187500
vt 0.083333 0.187500
vt 0.125000 0.187500
vt 0.166667 0.187500
vt 0.208333 0.187500
vt 0.250000 0.187500
vt 0.291667 0.187500
vt 0.333333 0.187500
vt 0.375000 0.187500
vt 0.416667 0.187500
vt 0.458333 0.187500
vt 0.500000 0.187500
vt 0.541667 0.187500
vt 0.583333 0.187500
vt 0.625000 0.187500
vt 0.666667 0.187500
vt 0.708333 0.187500
vt 0.750000 0.187500
vt 0.791667 0.187500
vt 0.833333 0.187500
vt 0.875000 0.187500
vt 0.916667 0.187500
vt 0.958333 0.187500
vt 1.000000 0.187500
vt 0.000000 0.250000
vt 0.041667 0.250000
vt 0.083333 0.250000
vt 0.125000 0.250000
vt 0.166667 0.250000
vt 0.208333 0.250000
vt 0.250000 0.250000
vt 0.291667 0.250000
vt 0.333333 0.250000
vt 0.375000 0.250000
vt 0.416667 0.250000
vt 0.458333 0.250000
vt 0.500000 0.250000
vt 0.541667 0.250000
vt 0.583333 0.250000
vt 0.625000 0.250000
vt 0.666667 0.250000
vt 0.708333 0.250000
vt 0.750000 0.250000
vt 0.791667 0.250000
vt 0.833333 0.250000
vt 0.875000 0.250000
vt 0.916667 0.250000
vt 0.958333 0.250000
vt 1.000000 0.250000
vt 0.000000 0.312500
vt 0.041667 0.312500
vt 0.083333 0.312500
vt 0.125000 0.312500
vt 0.166667 0.312500
vt 0.208333 0.312500
vt 0.250000 0.312500
vt 0.291667 0.312500
vt 0.333333 0.312500
vt 0.375000 0.312500
vt 0.416667 0.312500
vt 0.458333 0.312500
vt 0.500000 0.312500
vt 0.541667 0.312500
vt 0.583333 0.312500
vt 0.625000 0.312500
vt 0.666667 0.312500
vt 0.708333 0.312500
vt 0.750000 0.312500
vt 0.791667 0.312500
vt 0.833333 0.312500
vt 0.875000 0.312500
vt 0.916667 0.312500
vt 0.958333 0.312500
vt 1.000000 0.312500
vt 0.000000 0.375000
vt 0.041667 0.375000
vt 0.083333 0.375000
vt 0.125000 0.375000
vt 0.166667 0.375000
vt 0.208333 0.375000
vt 0.250000 0.375000
vt 0.291667 0.375000
vt 0.333333 0.375000
vt 0.375000 0.375000
vt 0.416667 0.375000
vt 0.458333 0.375000
vt 0.500000 0.375000
vt 0.541667 0.375000
vt 0.583333 0.375000
vt 0.625000 0.375000
vt 0.666667 0.375000
vt 0.708333 0.375000
vt 0.750000 0.375000
vt 0.791667 0.375000
vt 0.833333 0.375000
vt 0.875000 0.375000
vt 0.916667 0.375000
vt 0.958333 0.375000
vt 1.000000 0.375000
vt 0.000000 0.437500
vt 0.041667 0.437500
vt 0.083333 0.437500
vt 0.125000 0.437500
vt 0.166667 0.437500
vt 0.208333 0.437500
vt 0.250000 0.437500
vt 0.291667 0.437500
vt 0.333333 0.437500
vt 0.375000 0.437500
vt 0.416667 0.437500
vt 0.458333 0.437500
vt 0.500000 0.437500
vt 0.541667 0.437500
vt 0.583333 0.437500
vt 0.625000 0.437500
vt 0.666667 0.437500
vt 0.708333 0.437500
vt 0.750000 0.437500
vt 0.791667 0.437500
vt 0.833333 0.437500
vt 0.875000 0.437500
vt 0.916667 0.437500
vt 0.958333 0.437500
vt 1.000000 0.437500
vt 0.000000 0.500000
vt 0.041667 0.500000
vt 0.083333 0.500000
vt 0.125000 0.500000
vt 0.166667 0.500000
vt 0.208333 0.500000
vt 0.250000 0.500000
vt 0.291667 0.500000
vt 0.333333 0.500000
vt 0.375000 0.500000
vt 0.416667 0.500000
vt 0.458333 0.500000
vt 0.500000 0.500000
vt 0.541667 0.500000
vt 0.583333 0.500000
vt 0.625000 0.500000
vt 0.666667 0.500000
vt 0.708333 0.500000
vt 0.750000 0.500000
vt 0.791667 0.500000
vt 0.833333 0.500000
vt 0.875000 0.500000
vt 0.916667 0.500000
vt 0.958333 0.500000
vt 1.000000 0.500000
vt 0.000000 0.562500
vt 0.041667 0.562500
vt 0.083333 0.562500
vt 0.125000 0.562500
vt 0.166667 0.562500
vt 0.208333 0.562500
vt 0.250000 0.562500
vt 0.291667 0.562500
vt 0.333333 0.562500
vt 0.375000 0.562500
vt 0.416667 0.562500
vt 0.458333 0.562500
vt 0.500000 0.562500
vt 0.541667 0.562500
vt 0.583333 0.562500
vt 0.625000 0.562500
vt 0.666667 0.562500
vt 0.708333 0.562500
vt 0.750000 0.562500
vt 0.791667 0.562500
vt 0.833333 0.562500
vt 0.875000 0.562500
vt 0.916667 0.562500
vt 0.958333 0.562500
vt 1.000000 0.562500
vt 0.000000 0.625000
vt 0.041667 0.625000
vt 0.083333 0.625000
vt 0.125000 0.625000
vt 0.166667 0.625000
vt 0.208333 0.625000
vt 0.250000 0.625000
vt 0.291667 0.625000
vt 0.333333 0.625000
vt 0.375000 0.625000
vt 0.416667 0.625000
vt 0.458333 0.625000
vt 0.500000 0.625000
vt 0.541667 0.625000
vt 0.583333 0.625000
vt 0.625000 0.625000
vt 0.666667 0.625000
vt 0.708333 0.625000
vt 0.750000 0.625000
vt 0.791667 0.625000
vt 0.833333 0.625000
vt 0.875000 0.625000
vt 0.916667 0.625000
vt 0.958333 0.625000
vt 1.000000 0.625000
vt 0.000000 0.687500
vt 0.041667 0.687500
vt 0.083333 0.687500
vt 0.125000 0.687500
vt 0.166667 0.687500
vt 0.208333 0.687500
vt 0.250000 0.687500
vt 0.291667 0.687500
vt 0.333333 0.687500
vt 0.375000 0.687500
vt 0.416667 0.687500
vt 0.458333 0.687500
vt 0.500000 0.687500
vt 0.541667 0.687500
vt 0.583333 0.687500
vt 0.625000 0.687500
vt 0.666667 0.687500
vt 0.708333 0.687500
vt 0.750000 0.687500
vt 0.791667 0.687500
vt 0.833333 0.687500
vt 0.875000 0.687500
vt 0.916667 0.687500
vt 0.958333 0.687500
vt 1.000000 0.687500
vt 0.000000 0.750000
vt 0.041667 0.750000
vt 0.083333 0.750000
vt 0.125000 0.750000
vt 0.166667 0.750000
vt 0.208333 0.750000
vt 0.250000 0.750000
vt 0.291667 0.750000
vt 0.333333 0.750000
vt 0.375000 0.750000
vt 0.416667 0.750000
vt 0.458333 0.750000
vt 0.500000 0.750000
vt 0.541667 0.750000
vt 0.583333 0.750000
vt 0.625000 0.750000
vt 0.666667 0.750000
vt 0.708333 0.750000
vt 0.750000 0.750000
vt 0.791667 0.750000
vt 0.833333 0.750000
vt 0.875000 0.750000
vt 0.916667 0.750000
vt 0.958333 0.750000
vt 1.000000 0.750000
vt 0.000000 0.812500
vt 0.041667 0.812500
vt 0.083333 0.812500
vt 0.125000 0.812500
vt 0.166667 0.812500
vt 0.208333 0.812500
vt 0.250000 0.812500
vt 0.291667 0.812500
vt 0.333333 0.812500
vt 0.375000 0.812500
vt 0.416667 0.812500
vt 0.458333 0.812500
vt 0.500000 0.812500
vt 0.541667 0.812500
vt 0.583333 0.812500
vt 0.625000 0.812500
vt 0.666667 0.812500
vt 0.708333 0.812500
vt 0.750000 0.812500
vt 0.791667 0.812500
vt 0.833333 0.812500
vt 0.875000 0.812500
vt 0.916667 0.812500
vt 0.958333 0.812500
vt 1.000000 0.812500
vt 0.000000 0.875000
vt 0.041667 0.875000
vt 0.083333 0.875000
vt 0.125000 0.875000
vt 0.166667 0.875000
vt 0.208333 0.875000
vt 0.250000 0.875000
vt 0.291667 0.875000
vt 0.333333 0.875000
vt 0.375000 0.875000
vt 0.416667 0.875000
vt 0.458333 0.875000
vt 0.500000 0.875000
vt 0.541667 0.875000
vt 0.583333 0.875000
vt 0.625000 0.875000
vt 0.666667 0.875000
vt 0.708333 0.875000
vt 0.750000 0.875000
vt 0.791667 0.875000
vt 0.833333 0.875000
vt 0.875000 0.875000
vt 0.916667 0.875000
vt 0.958333 0.875000
vt 1.000000 0.875000
vt 0.000000 0.937500
vt 0.041667 0.937500
vt 0.083333 0.937500
vt 0.125000 0.937500
vt 0.166667 0.937500
vt 0.208333 0.937500
vt 0.250000 0.937500
vt 0.291667 0.937500
vt 0.333333 0.937500
vt 0.375000 0.937500
vt 0.416667 0.937500
vt 0.458333 0.937500
vt 0.500000 0.937500
vt 0.541667 0.937500
vt 0.583333 0.937500
vt 0.625000 0.937500
vt 0.666667 0.937500
vt 0.708333 0.937500
vt 0.750000 0.937500
vt 0.791667 0.937500
vt 0.833333 0.937500
vt 0.875000 0.937500
vt 0.916667 0.937500
vt 0.958333 0.937500
vt 1.000000 0.937500
vt 0.000000 1.000000
vt 0.041667 1.000000
vt 0.083333 1.000000
vt 0.125000 1.000000
vt 0.166667 1.000000
vt 0.208333 1.000000
vt 0.250000 1.000000
vt 0.291667 1.000000
vt 0.333333 1.000000
vt 0.375000 1.000000
vt 0.416667 1.000000
vt 0.458333 1.000000
vt 0.500000 1.000000
vt 0.541667 1.000000
vt 0.583333 1.000000
vt 0.625000 1.000000
vt 0.666667 1.000000
vt 0.708333 1.000000
vt 0.750000 1.000000
vt 0.791667 1.000000
vt 0.833333 1.000000
vt 0.875000 1.000000
vt 0.916667 1.000000
vt 0.958333 1.000000
vt 1.000000 1.000000
vn 0.000000 1.000000 0.000000
vn 0.000000 0.980785 0.195090
vn 0.050493 0.980785 0.188443
vn 0.097545 0.980785 0.168953
vn 0.137950 0.980785 0.137950
vn 0.168953 0.980785 0.097545
vn 0.188443 0.980785 0.050493
vn 0.195090 0.980785 0.000000
vn 0.188443 0.980785 -0.050493
vn 0.168953 0.980785 -0.097545
vn 0.137950 0.980785 -0.137950
vn 0.097545 0.980785 -0.168953
vn 0.050493 0.980785 -0.188443
vn 0.000000 0.980785 -0.195090
vn -0.050493 0.980785 -0.188443
vn -0.097545 0.980785 -0.168953
vn -0.137950 0.980785 -0.137950
vn -0.168953 0.980785 -0.097545
vn -0.188443 0.980785 -0.050493
vn -0.195090 0.980785 -0.000000
vn -0.188443 0.980785 0.050493
vn -0.168953 0.980785 0.097545
vn -0.137950 0.980785 0.137950
vn -0.097545 0.980785 0.168953
vn -0.050493 0.980785 0.188443
vn 0.000000 0.923880 0.382683
vn 0.099046 0.923880 0.369644
vn 0.191342 0.923880 0.331414
vn 0.270598 0.923880 0.270598
vn 0.331414 0.923880 0.191342
vn 0.369644 0.923880 0.099046
vn 0.382683 0.923880 0.000000
vn 0.369644 0.923880 -0.099046
vn 0.331414 0.923880 -0.191342
vn 0.270598 0.923880 -0.270598
vn 0.191342 0.923880 -0.331414
vn 0.099046 0.923880 -0.369644
vn 0.000000 0.923880 -0.382683
vn -0.099046 0.923880 -0.369644
vn -0.191342 0.923880 -0.331414
vn -0.270598 0.923880 -0.270598
vn -0.331414 0.923880 -0.191342
vn -0.369644 0.923880 -0.099046
vn -0.382683 0.923880 -0.000000
vn -0.369644 0.923880 0.099046
vn -0.331414 0.923880 0.191342
vn -0.270598 0.923880 0.270598
vn -0.191342 0.923880 0.331414
vn -0.099046 0.923880 0.369644
vn 0.000000 0.831470 0.555570
vn 0.143792 0.831470 0.536640
vn 0.277785 0.831470 0.481138
vn 0.392847 0.831470 0.392847
vn 0.481138 0.831470 0.277785
vn 0.536640 0.831470 0.143792
vn 0.555570 0.831470 0.000000
vn 0.536640 0.831470 -0.143792
vn 0.481138 0.831470 -0.277785
vn 0.392847 0.831470 -0.392847
vn 0.277785 0.831470 -0.481138
vn 0.143792 0.831470 -0.536640
vn 0.000000 0.831470 -0.555570
vn -0.143792 0.831470 -0.536640
vn -0.277785 0.831470 -0.481138
vn -0.392847 0.831470 -0.392847
vn -0.481138 0.831470 -0.277785
vn -0.536640 0.831470 -0.143792
vn -0.555570 0.831470 -0.000000
vn -0.536640 0.831470 0.143792
vn -0.481138 0.831470 0.277785
vn -0.392847 0.831470 0.392847
vn -0.277785 0.831470 0.481138
vn -0.143792 0.831470 0.536640
vn 0.000000 0.707107 0.707107
vn 0.183013 0.707107 0.683013
vn 0.353553 0.707107 0.612372
vn 0.500000 0.707107 0.500000
vn 0.612372 0.707107 0.353553
vn 0.683013 0.707107 0.183013
vn 0.707107 0.707107 0.000000
vn 0.683013 0.707107 -0.183013
vn 0.612372 0.707107 -0.353553
vn 0.500000 0.707107 -0.500000
vn 0.353553 0.707107 -0.612372
vn 0.183013 0.707107 -0.683013
vn 0.000000 0.707107 -0.707107
vn -0.183013 0.707107 -0.683013
vn -0.353553 0.707107 -0.612372
vn -0.500000 0.707107 -0.500000
vn -0.612372 0.707107 -0.353553
vn -0.683013 0.707107 -0.183013
vn -0.707107 0.707107 -0.000000
vn -0.683013 0.707107 0.183013
vn -0.612372 0.707107 0.353553
vn -0.500000 0.707107 0.500000
vn -0.353553 0.707107 0.612372
vn -0.183013 0.707107 0.683013
vn 0.000000 0.555570 0.831470
vn 0.215200 0.555570 0.803138
vn 0.415735 0.555570 0.720074
vn 0.587938 0.555570 0.587938
vn 0.720074 0.555570 0.415735
vn 0.803138 0.555570 0.215200
vn 0.831470 0.555570 0.000000
vn 0.803138 0.555570 -0.215200
vn 0.720074 0.555570 -0.415735
vn 0.587938 0.555570 -0.587938
vn 0.415735 0.555570 -0.720074
vn 0.215200 0.555570 -0.803138
vn 0.000000 0.555570 -0.831470
vn -0.215200 0.555570 -0.803138
vn -0.415735 0.555570 -0.720074
vn -0.587938 0.555570 -0.587938
vn -0.720074 0.555570 -0.415735
vn -0.803138 0.555570 -0.215200
vn -0.831470 0.555570 -0.000000
vn -0.803138 0.555570 0.215200
vn -0.720074 0.555570 0.415735
vn -0.587938 0.555570 0.587938
vn -0.415735 0.555570 0.720074
vn -0.215200 0.555570 0.803138
vn 0.000000 0.382683 0.923880
vn 0.239118 0.382683 0.892399
vn 0.461940 0.382683 0.800103
vn 0.653281 0.382683 0.653281
vn 0.800103 0.382683 0.461940
vn 0.892399 0.382683 0.239118
vn 0.923880 0.382683 0.000000
vn 0.892399 0.382683 -0.239118
vn 0.800103 0.382683 -0.461940
vn 0.653281 0.382683 -0.653281
vn 0.461940 0.382683 -0.800103
vn 0.239118 0.382683 -0.892399
vn 0.000000 0.382683 -0.923880
vn -0.239118 0.382683 -0.892399
vn -0.461940 0.382683 -0.800103
vn -0.653281 0.382683 -0.653281
vn -0.800103 0.382683 -0.461940
vn -0.892399 0.382683 -0.239118
vn -0.923880 0.382683 -0.000000
vn -0.892399 0.382683 0.239118
vn -0.800103 0.382683 0.461940
vn -0.653281 0.382683 0.653281
vn -0.461940 0.382683 0.800103
vn -0.239118 0.382683 0.892399
vn 0.000000 0.195090 0.980785
vn 0.253846 0.195090 0.947366
vn 0.490393 0.195090 0.849385
vn 0.693520 0.195090 0.693520
vn 0.849385 0.195090 0.490393
vn 0.947366 0.195090 0.253846
vn 0.980785 0.195090 0.000000
vn 0.947366 0.195090 -0.253846
vn 0.849385 0.195090 -0.490393
vn 0.693520 0.195090 -0.693520
vn 0.490393 0.195090 -0.849385
vn 0.253846 0.195090 -0.947366
vn 0.000000 0.195090 -0.980785
vn -0.253846 0.195090 -0.947366
vn -0.490393 0.195090 -0.849385
vn -0.693520 0.195090 -0.693520
vn -0.849385 0.195090 -0.490393
vn -0.947366 0.195090 -0.253846
vn -0.980785 0.195090 -0.000000
vn -0.947366 0.195090 0.253846
vn -0.849385 0.195090 0.490393
vn -0.693520 0.195090 0.693520
vn -0.490393 0.195090 0.849385
vn -0.253846 0.195090 0.947366
vn 0.000000 0.000000 1.000000
vn 0.258819 0.000000 0.965926
vn 0.500000 0.000000 0.866025
vn 0.707107 0.000000 0.707107
vn 0.866025 0.000000 0.500000
vn 0.965926 0.000000 0.258819
vn 1.000000 0.000000 0.000000
vn 0.965926 0.000000 -0.258819
vn 0.866025 0.000000 -0.500000
vn 0.707107 0.000000 -0.707107
vn 0.500000 0.000000 -0.866025
vn 0.258819 0.000000 -0.965926
vn 0.000000 0.000000 -1.000000
vn -0.258819 0.000000 -0.965926
vn -0.500000 0.000000 -0.866025
vn -0.707107 0.000000 -0.707107
vn -0.866025 0.000000 -0.500000
vn -0.965926 0.000000 -0.258819
vn -1.000000 0.000000 -0.000000
vn -0.965926 0.000000 0.258819
vn -0.866025 0.000000 0.500000
vn -0.707107 0.000000 0.707107
vn -0.500000 0.000000 0.866025
vn -0.258819 0.000000 0.965926
vn 0.000000 -0.195090 0.980785
vn 0.253846 -0.195090 0.947366
vn 0.490393 -0.195090 0.849385
vn 0.693520 -0.195090 0.693520
vn 0.849385 -0.195090 0.490393
vn 0.947366 -0.195090 0.253846
vn 0.980785 -0.195090 0.000000
vn 0.947366 -0.195090 -0.253846
vn 0.849385 -0.195090 -0.490393
vn 0.693520 -0.195090 -0.693520
vn 0.490393 -0.195090 -0.849385
vn 0.253846 -0.195090 -0.947366
vn 0.000000 -0.195090 -0.980785
vn -0.253846 -0.195090 -0.947366
vn -0.490393 -0.195090 -0.849385
vn -0.693520 -0.195090 -0.693520
vn -0.849385 -0.195090 -0.490393
vn -0.947366 -0.195090 -0.253846
vn -0.980785 -0.195090 -0.000000
vn -0.947366 -0.195090 0.253846
vn -0.849385 -0.195090 0.490393
vn -0.693520 -0.195090 0.693520
vn -0.490393 -0.195090 0.849385
vn -0.253846 -0.195090 0.947366
vn 0.000000 -0.382683 0.923880
vn 0.239118 -0.382683 0.892399
vn 0.461940 -0.382683 0.800103
vn 0.653281 -0.382683 0.653281
vn 0.800103 -0.382683 0.461940
vn 0.892399 -0.382683 0.239118
vn 0.923880 -0.382683 0.000000
vn 0.892399 -0.382683 -0.239118
vn 0.800103 -0.382683 -0.461940
vn 0.653281 -0.382683 -0.653281
vn 0.461940 -0.382683 -0.800103
vn 0.239118 -0.382683 -0.892399
vn 0.000000 -0.382683 -0.923880
vn -0.239118 -0.382683 -0.892399
vn -0.461940 -0.382683 -0.800103
vn -0.653281 -0.382683 -0.653281
vn -0.800103 -0.382683 -0.461940
vn -0.892399 -0.382683 -0.239118
vn -0.923880 -0.382683 -0.000000
vn -0.892399 -0.382683 0.239118
vn -0.800103 -0.382683 0.461940
vn -0.653281 -0.382683 0.653281
vn -0.461940 -0.382683 0.800103
vn -0.239118 -0.382683 0.892399
vn 0.000000 -0.555570 0.831470
vn 0.215200 -0.555570 0.803138
vn 0.415735 -0.555570 0.720074
vn 0.587938 -0.555570 0.587938
vn 0.720074 -0.555570 0.415735
vn 0.803138 -0.555570 0.215200
vn 0.831470 -0.555570 0.000000
vn 0.803138 -0.555570 -0.215200
vn 0.720074 -0.555570 -0.415735
vn 0.587938 -0.555570 -0.587938
vn 0.415735 -0.555570 -0.720074
vn 0.215200 -0.555570 -0.803138
vn 0.000000 -0.555570 -0.831470
vn -0.215200 -0.555570 -0.803138
vn -0.415735 -0.555570 -0.720074
vn -0.587938 -0.555570 -0.587938
vn -0.720074 -0.555570 -0.415735
vn -0.803138 -0.555570 -0.215200
vn -0.831470 -0.555570 -0.000000
vn -0.803138 -0.555570 0.215200
vn -0.720074 -0.555570 0.415735
vn -0.587938 -0.555570 0.587938
vn -0.415735 -0.555570 0.720074
vn -0.215200 -0.555570 0.803138
vn 0.000000 -0.707107 0.707107
vn 0.183013 -0.707107 0.683013
vn 0.353553 -0.707107 0.612372
vn 0.500000 -0.707107 0.500000
vn 0.612372 -0.707107 0.353553
vn 0.683013 -0.707107 0.183013
vn 0.707107 -0.707107 0.000000
vn 0.683013 -0.707107 -0.183013
vn 0.612372 -0.707107 -0.353553
vn 0.500000 -0.707107 -0.500000
vn 0.353553 -0.707107 -0.612372
vn 0.183013 -0.707107 -0.683013
vn 0.000000 -0.707107 -0.707107
vn -0.183013 -0.707107 -0.683013
vn -0.353553 -0.707107 -0.612372
vn -0.500000 -0.707107 -0.500000
vn -0.612372 -0.707107 -0.353553
vn -0.683013 -0.707107 -0.183013
vn -0.707107 -0.707107 -0.000000
vn -0.683013 -0.707107 0.183013
vn -0.612372 -0.707107 0.353553
vn -0.500000 -0.707107 0.500000
vn -0.353553 -0.707107 0.612372
vn -0.183013 -0.707107 0.683013
vn 0.000000 -0.831470 0.555570
vn 0.143792 -0.831470 0.536640
vn 0.277785 -0.831470 0.481138
vn 0.392847 -0.831470 0.392847
vn 0.481138 -0.831470 0.277785
vn 0.536640 -0.831470 0.143792
vn 0.555570 -0.831470 0.000000
vn 0.536640 -0.831470 -0.143792
vn 0.481138 -0.831470 -0.277785
vn 0.392847 -0.831470 -0.392847
vn 0.277785 -0.831470 -0.481138
vn 0.143792 -0.831470 -0.536640
vn 0.000000 -0.831470 -0.555570
vn -0.143792 -0.831470 -0.536640
vn -0.277785 -0.831470 -0.481138
vn -0.392847 -0.831470 -0.392847
vn -0.481138 -0.831470 -0.277785
vn -0.536640 -0.831470 -0.143792
vn -0.555570 -0.831470 -0.000000
vn -0.536640 -0.831470 0.143792
vn -0.481138 -0.831470 0.277785
vn -0.392847 -0.831470 0.392847
vn -0.277785 -0.831470 0.481138
vn -0.143792 -0.831470 0.536640
vn 0.000000 -0.923880 0.382683
vn 0.099046 -0.923880 0.369644
vn 0.191342 -0.923880 0.331414
vn 0.270598 -0.923880 0.270598
vn 0.331414 -0.923880 0.191342
vn 0.369644 -0.923880 0.099046
vn 0.382683 -0.923880 0.000000
vn 0.369644 -0.923880 -0.099046
vn 0.331414 -0.923880 -0.191342
vn 0.270598 -0.923880 -0.270598
vn 0.191342 -0.923880 -0.331414
vn 0.099046 -0.923880 -0.369644
vn 0.000000 -0.923880 -0.382683
vn -0.099046 -0.923880 -0.369644
vn -0.191342 -0.923880 -0.331414
vn -0.270598 -0.923880 -0.270598
vn -0.331414 -0.923880 -0.191342
vn -0.369644 -0.923880 -0.099046
vn -0.382683 -0.923880 -0.000000
vn -0.369644 -0.923880 0.099046
vn -0.331414 -0.923880 0.191342
vn -0.270598 -0.923880 0.270598
vn -0.191342 -0.923880 0.331414
vn -0.099046 -0.923880 0.369644
vn 0.000000 -0.980785 0.195090
vn 0.050493 -0.980785 0.188443
vn 0.097545 -0.980785 0.168953
vn 0.137950 -0.980785 0.137950
vn 0.168953 -0.980785 0.097545
vn 0.188443 -0.980785 0.050493
vn 0.195090 -0.980785 0.000000
vn 0.188443 -0.980785 -0.050493
vn 0.168953 -0.980785 -0.097545
vn 0.137950 -0.980785 -0.137950
vn 0.097545 -0.980785 -0.168953
vn 0.050493 -0.980785 -0.188443
vn 0.000000 -0.980785 -0.195090
vn -0.050493 -0.980785 -0.188443
vn -0.097545 -0.980785 -0.168953
vn -0.137950 -0.980785 -0.137950
vn -0.168953 -0.980785 -0.097545
vn -0.188443 -0.980785 -0.050493
vn -0.195090 -0.980785 -0.000000
vn -0.188443 -0.980785 0.050493
vn -0.168953 -0.980785 0.097545
vn -0.137950 -0.980785 0.137950
vn -0.097545 -0.980785 0.168953
vn -0.050493 -0.980785 0.188443
vn 0.000000 -1.000000 0.000000
usemtl Material
f 1/1/1 2/26/2 3/27/3
f 1/2/1 3/27/3 4/28/4
f 1/3/1 4/28/4 5/29/5
f 1/4/1 5/29/5 6/30/6
f 1/5/1 6/30/6 7/31/7
f 1/6/1 7/31/7 8/32/8
f 1/7/1 8/32/8 9/33/9
f 1/8/1 9/33/9 10/34/10
f 1/9/1 10/34/10 11/35/11
f 1/10/1 11/35/11 12/36/12
f 1/11/1 12/36/12 13/37/13
f 1/12/1 13/37/13 14/38/14
f 1/13/1 14/38/14 15/39/15
f 1/14/1 15/39/15 16/40/16
f 1/15/1 16/40/16 17/41/17
f 1/16/1 17/41/17 18/42/18
f 1/17/1 18/42/18 19/43/19
f 1/18/1 19/43/19 20/44/20
f 1/19/1 20/44/20 21/45/21
f 1/20/1 21/45/21 22/46/22
f 1/21/1 22/46/22 23/47/23
f 1/22/1 23/47/23 24/48/24
f 1/23/1 24/48/24 25/49/25
f 1/24/1 25/49/25 2/50/2
f 2/26/2 26/51/26 3/27/3
f 3/27/3 26/51/26 27/52/27
f 3/27/3 27/52/27 4/28/4
f 4/28/4 27/52/27 28/53/28
f 4/28/4 28/53/28 5/29/5
f 5/29/5 28/53/28 29/54/29
f 5/29/5 29/54/29 6/30/6
f 6/30/6 29/54/29 30/55/30
f 6/30/6 30/55/30 7/31/7
f 7/31/7 30/55/30 31/56/31
f 7/31/7 31/56/31 8/32/8
f 8/32/8 31/56/31 32/57/32
f 8/32/8 32/57/32 9/33/9
f 9/33/9 32/57/32 33/58/33
f 9/33/9 33/58/33 10/34/10
f 10/34/10 33/58/33 34/59/34
f 10/34/10 34/59/34 11/35/11
f 11/35/11 34/59/34 35/60/35
f 11/35/11 35/60/35 12/36/12
f 12/36/12 35/60/35 36/61/36
f 12/36/12 36/61/36 13/37/13
f 13/37/13 36/61/36 37/62/37
f 13/37/13 37/62/37 14/38/14
f 14/38/14 37/62/37 38/63/38
f 14/38/14 38/63/38 15/39/15
f 15/39/15 38/63/38 39/64/39
f 15/39/15 39/64/39 16/40/16
f 16/40/16 39/64/39 40/65/40
f 16/40/16 40/65/40 17/41/17
f 17/41/17 40/65/40 41/66/41
f 17/41/17 41/66/41 18/42/18
f 18/42/18 41/66/41 42/67/42
f 18/42/18 42/67/42 19/43/19
f 19/43/19 42/67/42 43/68/43
f 19/43/19 43/68/43 20/44/20
f 20/44/20 43/68/43 44/69/44
f 20/44/20 44/69/44 21/45/21
f 21/45/21 44/69/44 45/70/45
f 21/45/21 45/70/45 22/46/22
f 22/46/22 45/70/45 46/71/46
f 22/46/22 46/71/46 23/47/23
f 23/47/23 46/71/46 47/72/47
f 23/47/23 47/72/47 24/48/24
f 24/48/24 47/72/47 48/73/48
f 24/48/24 48/73/48 25/49/25
f 25/49/25 48/73/48 49/74/49
f 25/49/25 49/74/49 2/50/2
f 2/50/2 49/74/49 26/75/26
f 26/51/26 50/76/50 27/52/27
f 27/52/27 50/76/50 51/77/51
f 27/52/27 51/77/51 28/53/28
f 28/53/28 51/77/51 52/78/52
f 28/53/28 52/78/52 29/54/29
f 29/54/29 52/78/52 53/79/53
f 29/54/29 53/79/53 30/55/30
f 30/55/30 53/79/53 54/80/54
f 30/55/30 54/80/54 31/56/31
f 31/56/31 54/80/54 55/81/55
f 31/56/31 55/81/55 32/57/32
f 32/57/32 55/81/55 56/82/56
f 32/57/32 56/82/56 33/58/33
f 33/58/33 56/82/56 57/83/57
f 33/58/33 57/83/57 34/59/34
f 34/59/34 57/83/57 58/84/58
f 34/59/34 58/84/58 35/60/35
f 35/60/35 58/84/58 59/85/59
f 35/60/35 59/85/59 36/61/36
f 36/61/36 59/85/59 60/86/60
f 36/61/36 60/86/60 37/62/37
f 37/62/37 60/86/60 61/87/61
f 37/62/37 61/87/61 38/63/38
f 38/63/38 61/87/61 62/88/62
f 38/63/38 62/88/62 39/64/39
f 39/64/39 62/88/62 63/89/63
f 39/64/39 63/89/63 40/65/40
f 40/65/40 63/89/63 64/90/64
f 40/65/40 64/90/64 41/66/41
f 41/66/41 64/90/64 65/91/65
f 41/66/41 65/91/65 42/67/42
f 42/67/42 65/91/65 66/92/66
f 42/67/42 66/92/66 43/68/43
f 43/68/43 66/92/66 67/93/67
f 43/68/43 67/93/67 44/69/44
f 44/69/44 67/93/67 68/94/68
f 44/69/44 68/94/68 45/70/45
f 45/70/45 68/94/68 69/95/69
f 45/70/45 69/95/69 46/71/46
f 46/71/46 69/95/69 70/96/70
f 46/71/46 70/96/70 47/72/47
f 47/72/47 70/96/70 71/97/71
f 47/72/47 71/97/71 48/73/48
f 48/73/48 71/97/71 72/98/72
f 48/73/48 72/98/72 49/74/49
f 49/74/49 72/98/72 73/99/73
f 49/74/49 73/99/73 26/75/26
f 26/75/26 73/99/73 50/100/50
f 50/76/50 74/101/74 51/77/51
f 51/77/51 74/101/74 75/102/75
f 51/77/51 75/102/75 52/78/52
f 52/78/52 75/102/75 76/103/76
f 52/78/52 76/103/76 53/79/53
f 53/79/53 76/103/76 77/104/77
f 53/79/53 77/104/77 54/80/54
f 54/80/54 77/104/77 78/105/78
f 54/80/54 78/105/78 55/81/55
f 55/81/55 78/105/78 79/106/79
f 55/81/55 79/106/79 56/82/56
f 56/82/56 79/106/79 80/107/80
f 56/82/56 80/107/80 57/83/57
f 57/83/57 80/107/80 81/108/81
f 57/83/57 81/108/81 58/84/58
f 58/84/58 81/108/81 82/109/82
f 58/84/58 82/109/82 59/85/59
f 59/85/59 82/109/82 83/110/83
f 59/85/59 83/110/83 60/86/60
f 60/86/60 83/110/83 84/111/84
f 60/86/60 84/111/84 61/87/61
f 61/87/61 84/111/84 85/112/85
f 61/87/61 85/112/85 62/88/62
f 62/88/62 85/112/85 86/113/86
f 62/88/62 86/113/86 63/89/63
f 63/89/63 86/113/86 87/114/87
f 63/89/63 87/114/87 64/90/64
f 64/90/64 87/114/87 88/115/88
f 64/90/64 88/115/88 65/91/65
f 65/91/65 88/115/88 89/116/89
f 65/91/65 89/116/89 66/92/66
f 66/92/66 89/116/89 90/117/90
f 66/92/66 90/117/90 67/93/67
f 67/93/67 90/117/90 91/118/91
f 67/93/67 91/118/91 68/94/68
f 68/94/68 91/118/91 92/119/92
f 68/94/68 92/119/92 69/95/69
f 69/95/69 92/119/92 93/120/93
f 69/95/69 93/120/93 70/96/70
f 70/96/70 93/120/93 94/121/94
f 70/96/70 94/121/94 71/97/71
f 71/97/71 94/121/94 95/122/95
f 71/97/71 95/122/95 72/98/72
f 72/98/72 95/122/95 96/123/96
f 72/98/72 96/123/96 73/99/73
f 73/99/73 96/123/96 97/124/97
f 73/99/73 97/124/97 50/100/50
f 50/100/50 97/124/97 74/125/74
f 74/101/74 98/126/98 75/102/75
f 75/102/75 98/126/98 99/127/99
f 75/102/75 99/127/99 76/103/76
f 76/103/76 99/127/99 100/128/100
f 76/103/76 100/128/100 77/104/77
f 77/104/77 100/128/100 101/129/101
f 77/104/77 101/129/101 78/105/78
f 78/105/78 101/129/101 102/130/102
f 78/105/78 102/130/102 79/106/79
f 79/106/79 102/130/102 103/131/103
f 79/106/79 103/131/103 80/107/80
f 80/107/80 103/131/103 104/132/104
f 80/107/80 104/132/104 81/108/81
f 81/108/81 104/132/104 105/133/105
f 81/108/81 105/133/105 82/109/82
f 82/109/82 105/133/105 106/134/106
f 82/109/82 106/134/106 83/110/83
f 83/110/83 106/134/106 107/135/107
f 83/110/83 107/135/107 84/111/84
f 84/111/84 107/135/107 108/136/108
f 84/111/84 108/136/108 85/112/85
f 85/112/85 108/136/108 109/137/109
f 85/112/85 109/137/109 86/113/86
f 86/113/86 109/137/109 110/138/110
f 86/113/86 110/138/110 87/114/87
f 87/114/87 110/138/110 111/139/111
f 87/114/87 111/139/111 88/115/88
f 88/115/88 111/139/111 112/140/112
f 88/115/88 112/140/112 89/116/89
f 89/116/89 112/140/112 113/141/113
f 89/116/89 113/141/113 90/117/90
f 90/117/90 113/141/113 114/142/114
f 90/117/90 114/142/114 91/118/91
f 91/118/91 114/142/114 115/143/115
f 91/118/91 115/143/115 92/119/92
f 92/119/92 115/143/115 116/144/116
f 92/119/92 116/144/116 93/120/93
f 93/120/93 116/144/116 117/145/117
f 93/120/93 117/145/117 94/121/94
f 94/121/94 117/145/117 118/146/118
f 94/121/94 118/146/118 95/122/95
f 95/122/95 118/146/118 119/147/119
f 95/122/95 119/147/119 96/123/96
f 96/123/96 119/147/119 120/148/120
f 96/123/96 120/148/120 97/124/97
f 97/124/97 120/148/120 121/149/121
f 97/124/97 121/149/121 74/125/74
f 74/125/74 121/149/121 98/150/98
f 98/126/98 122/151/122 99/127/99
f 99/127/99 122/151/122 123/152/123
f 99/127/99 123/152/123 100/128/100
f 100/128/100 123/152/123 124/153/124
f 100/128/100 124/153/124 101/129/101
f 101/129/101 124/153/124 125/154/125
f 101/129/101 125/154/125 102/130/102
f 102/130/102 125/154/125 126/155/126
f 102/130/102 126/155/126 103/131/103
f 103/131/103 126/155/126 127/156/127
f 103/131/103 127/156/127 104/132/104
f 104/132/104 127/156/127 128/157/128
f 104/132/104 128/157/128 105/133/105
f 105/133/105 128/157/128 129/158/129
f 105/133/105 129/158/129 106/134/106
f 106/134/106 129/158/129 130/159/130
f 106/134/106 130/159/130 107/135/107
f 107/135/107 130/159/130 131/160/131
f 107/135/107 131/160/131 108/136/108
f 108/136/108 131/160/131 132/161/132
f 108/136/108 132/161/132 109/137/109
f 109/137/109 132/161/132 133/162/133
f 109/137/109 133/162/133 110/138/110
f 110/138/110 133/162/133 134/163/134
f 110/138/110 134/163/134 111/139/111
f 111/139/111 134/163/134 135/164/135
f 111/139/111 135/164/135 112/140/112
f 112/140/112 135/164/135 136/165/136
f 112/140/112 136/165/136 113/141/113
f 113/141/113 136/165/136 137/166/137
f 113/141/113 137/166/137 114/142/114
f 114/142/114 137/166/137 138/167/138
f 114/142/114 138/167/138 115/143/115
f 115/143/115 138/167/138 139/168/139
f 115/143/115 139/168/139 116/144/116
f 116/144/116 139/168/139 140/169/140
f 116/144/116 140/169/140 117/145/117
f 117/145/117 140/169/140 141/170/141
f 117/145/117 141/170/141 118/146/118
f 118/146/118 141/170/141 142/171/142
f 118/146/118 142/171/142 119/147/119
f 119/147/119 142/171/142 143/172/143
f 119/147/119 143/172/143 120/148/120
f 120/148/120 143/172/143 144/173/144
f 120/148/120 144/173/144 121/149/121
f 121/149/121 144/173/144 145/174/145
f 121/149/121 145/174/145 98/150/98
f 98/150/98 145/174/145 122/175/122
f 122/151/122 146/176/146 123/152/123
f 123/152/123 146/176/146 147/177/147
f 123/152/123 147/177/147 124/153/124
f 124/153/124 147/177/147 148/178/148
f 124/153/124 148/178/148 125/154/125
f 125/154/125 148/178/148 149/179/149
f 125/154/125 149/179/149 126/155/126
f 126/155/126 149/179/149 150/180/150
f 126/155/126 150/180/150 127/156/127
f 127/156/127 150/180/150 151/181/151
f 127/156/127 151/181/151 128/157/128
f 128/157/128 151/181/151 152/182/152
f 128/157/128 152/182/152 129/158/129
f 129/158/129 152/182/152 153/183/153
f 129/158/129 153/183/153 130/159/130
f 130/159/130 153/183/153 154/184/154
f 130/159/130 154/184/154 131/160/131
f 131/160/131 154/184/154 155/185/155
f 131/160/131 155/185/155 132/161/132
f 132/161/132 155/185/155 156/186/156
f 132/161/132 156/186/156 133/162/133
f 133/162/133 156/186/156 157/187/157
f 133/162/133 157/187/157 134/163/134
f 134/163/134 157/187/157 158/188/158
f 134/163/134 158/188/158 135/164/135
f 135/164/135 158/188/158 159/189/159
f 135/164/135 159/189/159 136/165/136
f 136/165/136 159/189/159 160/190/160
f 136/165/136 160/190/160 137/166/137
f 137/166/137 160/190/160 161/191/161
f 137/166/137 161/191/161 138/167/138
f 138/167/138 161/191/161 162/192/162
f 138/167/138 162/192/162 139/168/139
f 139/168/139 162/192/162 163/193/163
f 139/168/139 163/193/163 140/169/140
f 140/169/140 163/193/163 164/194/164
f 140/169/140 164/194/164 141/170/141
f 141/170/141 164/194/164 165/195/165
f 141/170/141 165/195/165 142/171/142
f 142/171/142 165/195/165 166/196/166
f 142/171/142 166/196/166 143/172/143
f 143/172/143 166/196/166 167/197/167
f 143/172/143 167/197/167 144/173/144
f 144/173/144 167/197/167 168/198/168
f 144/173/144 168/198/168 145/174/145
f 145/174/145 168/198/168 169/199/169
f 145/174/145 169/199/169 122/175/122
f 122/175/122 169/199/169 146/200/146
f 146/176/146 170/201/170 147/177/147
f 147/177/147 170/201/170 171/202/171
f 147/177/147 171/202/171 148/178/148
f 148/178/148 171/202/171 172/203/172
f 148/178/148 172/203/172 149/179/149
f 149/179/149 172/203/172 173/204/173
f 149/179/149 173/204/173 150/180/150
f 150/180/150 173/204/173 174/205/174
f 150/180/150 174/205/174 151/181/151
f 151/181/151 174/205/174 175/206/175
f 151/181/151 175/206/175 152/182/152
f 152/182/152 175/206/175 176/207/176
f 152/182/152 176/207/176 153/183/153
f 153/183/153 176/207/176 177/208/177
f 153/183/153 177/208/177 154/184/154
f 154/184/154 177/208/177 178/209/178
f 154/184/154 178/209/178 155/185/155
f 155/185/155 178/209/178 179/210/179
f 155/185/155 179/210/179 156/186/156
f 156/186/156 179/210/179 180/211/180
f 156/186/156 180/211/180 157/187/157
f 157/187/157 180/211/180 181/212/181
f 157/187/157 181/212/181 158/188/158
f 158/188/158 181/212/181 182/213/182
f 158/188/158 182/213/182 159/189/159
f 159/189/159 182/213/182 183/214/183
f 159/189/159 183/214/183 160/190/160
f 160/190/160 183/214/183 184/215/184
f 160/190/160 184/215/184 161/191/161
f 161/191/161 184/215/184 185/216/185
f 161/191/161 185/216/185 162/192/162
f 162/192/162 185/216/185 186/217/186
f 162/192/162 186/217/186 163/193/163
f 163/193/163 186/217/186 187/218/187
f 163/193/163 187/218/187 164/194/164
f 164/194/164 187/218/187 188/219/188
f 164/194/164 188/219/188 165/195/165
f 165/195/165 188/219/188 189/220/189
f 165/195/165 189/220/189 166/196/166
f 166/196/166 189/220/189 190/221/190
f 166/196/166 190/221/190 167/197/167
f 167/197/167 190/221/190 191/222/191
f 167/197/167 191/222/191 168/198/168
f 168/198/168 191/222/191 192/223/192
f 168/198/168 192/223/192 169/199/169
f 169/199/169 192/223/192 193/224/193
f 169/199/169 193/224/193 146/200/146
f 146/200/146 193/224/193 170/225/170
f 170/201/170 194/226/194 171/202/171
f 171/202/171 194/226/194 195/227/195
f 171/202/171 195/227/195 172/203/172
f 172/203/172 195/227/195 196/228/196
f 172/203/172 196/228/196 173/204/173
f 173/204/173 196/228/196 197/229/197
f 173/204/173 197/229/197 174/205/174
f 174/205/174 197/229/197 198/230/198
f 174/205/174 198/230/198 175/206/175
f 175/206/175 198/230/198 199/231/199
f 175/206/175 199/231/199 176/207/176
f 176/207/176 199/231/199 200/232/200
f 176/207/176 200/232/200 177/208/177
f 177/208/177 200/232/200 201/233/201
f 177/208/177 201/233/201 178/209/178
f 178/209/178 201/233/201 202/234/202
f 178/209/178 202/234/202 179/210/179
f 179/210/179 202/234/202 203/235/203
f 179/210/179 203/235/203 180/211/180
f 180/211/180 203/235/203 204/236/204
f 180/211/180 204/236/204 181/212/181
f 181/212/181 204/236/204 205/237/205
f 181/212/181 205/237/205 182/213/182
f 182/213/182 205/237/205 206/238/206
f 182/213/182 206/238/206 183/214/183
f 183/214/183 206/238/206 207/239/207
f 183/214/183 207/239/207 184/215/184
f 184/215/184 207/239/207 208/240/208
f 184/215/184 208/240/208 185/216/185
f 185/216/185 208/240/208 209/241/209
f 185/216/185 209/241/209 186/217/186
f 186/217/186 209/241/209 210/242/210
f 186/217/186 210/242/210 187/218/187
f 187/218/187 210/242/210 211/243/211
f 187/218/187 211/243/211 188/219/188
f 188/219/188 211/243/211 212/244/212
f 188/219/188 212/244/212 189/220/189
f 189/220/189 212/244/212 213/245/213
f 189/220/189 213/245/213 190/221/190
f 190/221/190 213/245/213 214/246/214
f 190/221/190 214/246/214 191/222/191
f 191/222/191 214/246/214 215/247/215
f 191/222/191 215/247/215 192/223/192
f 192/223/192 215/247/215 216/248/216
f 192/223/192 216/248/216 193/224/193
f 193/224/193 216/248/216 217/249/217
f 193/224/193 217/249/217 170/225/170
f 170/225/170 217/249/217 194/250/194
f 194/226/194 218/251/218 195/227/195
f 195/227/195 218/251/218 219/252/219
f 195/227/195 219/252/219 196/228/196
f 196/228/196 219/252/219 220/253/220
f 196/228/196 220/253/220 197/229/197
f 197/229/197 220/253/220 221/254/221
f 197/229/197 221/254/221 198/230/198
f 198/230/198 221/254/221 222/255/222
f 198/230/198 222/255/222 199/231/199
f 199/231/199 222/255/222 223/256/223
f 199/231/199 223/256/223 200/232/200
f 200/232/200 223/256/223 224/257/224
f 200/232/200 224/257/224 201/233/201
f 201/233/201 224/257/224 225/258/225
f 201/233/201 225/258/225 202/234/202
f 202/234/202 225/258/225 226/259/226
f 202/234/202 226/259/226 203/235/203
f 203/235/203 226/259/226 227/260/227
f 203/235/203 227/260/227 204/236/204
f 204/236/204 227/260/227 228/261/228
f 204/236/204 228/261/228 205/237/205
f 205/237/205 228/261/228 229/262/229
f 205/237/205 229/262/229 206/238/206
f 206/238/206 229/262/229 230/263/230
f 206/238/206 230/263/230 207/239/207
f 207/239/207 230/263/230 231/264/231
f 207/239/207 231/264/231 208/240/208
f 208/240/208 231/264/231 232/265/232
f 208/240/208 232/265/232 209/241/209
f 209/241/209 232/265/232 233/266/233
f 209/241/209 233/266/233 210/242/210
f 210/242/210 233/266/233 234/267/234
f 210/242/210 234/267/234 211/243/211
f 211/243/211 234/267/234 235/268/235
f 211/243/211 235/268/235 212/244/212
f 212/244/212 235/268/235 236/269/236
f 212/244/212 236/269/236 213/245/213
f 213/245/213 236/269/236 237/270/237
f 213/245/213 237/270/237 214/246/214
f 214/246/214 237/270/237 238/271/238
f 214/246/214 238/271/238 215/247/215
f 215/247/215 238/271/238 239/272/239
f 215/247/215 239/272/239 216/248/216
f 216/248/216 239/272/239 240/273/240
f 216/248/216 240/273/240 217/249/217
f 217/249/217 240/273/240 241/274/241
f 217/249/217 241/274/241 194/250/194
f 194/250/194 241/274/241 218/275/218
f 218/251/218 242/276/242 219/252/219
f 219/252/219 242/276/242 243/277/243
f 219/252/219 243/277/243 220/253/220
f 220/253/220 243/277/243 244/278/244
f 220/253/220 244/278/244 221/254/221
f 221/254/221 244/278/244 245/279/245
f 221/254/221 245/279/245 222/255/222
f 222/255/222 245/279/245 246/280/246
f 222/255/222 246/280/246 223/256/223
f 223/256/223 246/280/246 247/281/247
f 223/256/223 247/281/247 224/257/224
f 224/257/224 247/281/247 248/282/248
f 224/257/224 248/282/248 225/258/225
f 225/258/225 248/282/248 249/283/249
f 225/258/225 249/283/249 226/259/226
f 226/259/226 249/283/249 250/284/250
f 226/259/226 250/284/250 227/260/227
f 227/260/227 250/284/250 251/285/251
f 227/260/227 251/285/251 228/261/228
f 228/261/228 251/285/251 252/286/252
f 228/261/228 252/286/252 229/262/229
f 229/262/229 252/286/252 253/287/253
f 229/262/229 253/287/253 230/263/230
f 230/263/230 253/287/253 254/288/254
f 230/263/230 254/288/254 231/264/231
f 231/264/231 254/288/254 255/289/255
f 231/264/231 255/289/255 232/265/232
f 232/265/232 255/289/255 256/290/256
f 232/265/232 256/290/256 233/266/233
f 233/266/233 256/290/256 257/291/257
f 233/266/233 257/291/257 234/267/234
f 234/267/234 257/291/257 258/292/258
f 234/267/234 258/292/258 235/268/235
f 235/268/235 258/292/258 259/293/259
f 235/268/235 259/293/259 236/269/236
f 236/269/236 259/293/259 260/294/260
f 236/269/236 260/294/260 237/270/237
f 237/270/237 260/294/260 261/295/261
f 237/270/237 261/295/261 238/271/238
f 238/271/238 261/295/261 262/296/262
f 238/271/238 262/296/262 239/272/239
f 239/272/239 262/296/262 263/297/263
f 239/272/239 263/297/263 240/273/240
f 240/273/240 263/297/263 264/298/264
f 240/273/240 264/298/264 241/274/241
f 241/274/241 264/298/264 265/299/265
f 241/274/241 265/299/265 218/275/218
f 218/275/218 265/299/265 242/300/242
f 242/276/242 266/301/266 243/277/243
f 243/277/243 266/301/266 267/302/267
f 243/277/243 267/302/267 244/278/244
f 244/278/244 267/302/267 268/303/268
f 244/278/244 268/303/268 245/279/245
f 245/279/245 268/303/268 269/304/269
f 245/279/245 269/304/269 246/280/246
f 246/280/246 269/304/269 270/305/270
f 246/280/246 270/305/270 247/281/247
f 247/281/247 270/305/270 271/306/271
f 247/281/247 271/306/271 248/282/248
f 248/282/248 271/306/271 272/307/272
f 248/282/248 272/307/272 249/283/249
f 249/283/249 272/307/272 273/308/273
f 249/283/249 273/308/273 250/284/250
f 250/284/250 273/308/273 274/309/274
f 250/284/250 274/309/274 251/285/251
f 251/285/251 274/309/274 275/310/275
f 251/285/251 275/310/275 252/286/252
f 252/286/252 275/310/275 276/311/276
f 252/286/252 276/311/276 253/287/253
f 253/287/253 276/311/276 277/312/277
f 253/287/253 277/312/277 254/288/254
f 254/288/254 277/312/277 278/313/278
f 254/288/254 278/313/278 255/289/255
f 255/289/255 278/313/278 279/314/279
f 255/289/255 279/314/279 256/290/256
f 256/290/256 279/314/279 280/315/280
f 256/290/256 280/315/280 257/291/257
f 257/291/257 280/315/280 281/316/281
f 257/291/257 281/316/281 258/292/258
f 258/292/258 281/316/281 282/317/282
f 258/292/258 282/317/282 259/293/259
f 259/293/259 282/317/282 283/318/283
f 259/293/259 283/318/283 260/294/260
f 260/294/260 283/318/283 284/319/284
f 260/294/260 284/319/284 261/295/261
f 261/295/261 284/319/284 285/320/285
f 261/295/261 285/320/285 262/296/262
f 262/296/262 285/320/285 286/321/286
f 262/296/262 286/321/286 263/297/263
f 263/297/263 286/321/286 287/322/287
f 263/297/263 287/322/287 264/298/264
f 264/298/264 287/322/287 288/323/288
f 264/298/264 288/323/288 265/299/265
f 265/299/265 288/323/288 289/324/289
f 265/299/265 289/324/289 242/300/242
f 242/300/242 289/324/289 266/325/266
f 266/301/266 290/326/290 267/302/267
f 267/302/267 290/326/290 291/327/291
f 267/302/267 291/327/291 268/303/268
f 268/303/268 291/327/291 292/328/292
f 268/303/268 292/328/292 269/304/269
f 269/304/269 292/328/292 293/329/293
f 269/304/269 293/329/293 270/305/270
f 270/305/270 293/329/293 294/330/294
f 270/305/270 294/330/294 271/306/271
f 271/306/271 294/330/294 295/331/295
f 271/306/271 295/331/295 272/307/272
f 272/307/272 295/331/295 296/332/296
f 272/307/272 296/332/296 273/308/273
f 273/308/273 296/332/296 297/333/297
f 273/308/273 297/333/297 274/309/274
f 274/309/274 297/333/297 298/334/298
f 274/309/274 298/334/298 275/310/275
f 275/310/275 298/334/298 299/335/299
f 275/310/275 299/335/299 276/311/276
f 276/311/276 299/335/299 300/336/300
f 276/311/276 300/336/300 277/312/277
f 277/312/277 300/336/300 301/337/301
f 277/312/277 301/337/301 278/313/278
f 278/313/278 301/337/301 302/338/302
f 278/313/278 302/338/302 279/314/279
f 279/314/279 302/338/302 303/339/303
f 279/314/279 303/339/303 280/315/280
f 280/315/280 303/339/303 304/340/304
f 280/315/280 304/340/304 281/316/281
f 281/316/281 304/340/304 305/341/305
f 281/316/281 305/341/305 282/317/282
f 282/317/282 305/341/305 306/342/306
f 282/317/282 306/342/306 283/318/283
f 283/318/283 306/342/306 307/343/307
f 283/318/283 307/343/307 284/319/284
f 284/319/284 307/343/307 308/344/308
f 284/319/284 308/344/308 285/320/285
f 285/320/285 308/344/308 309/345/309
f 285/320/285 309/345/309 286/321/286
f 286/321/286 309/345/309 310/346/310
f 286/321/286 310/346/310 287/322/287
f 287/322/287 310/346/310 311/347/311
f 287/322/287 311/347/311 288/323/288
f 288/323/288 311/347/311 312/348/312
f 288/323/288 312/348/312 289/324/289
f 289/324/289 312/348/312 313/349/313
f 289/324/289 313/349/313 266/325/266
f 266/325/266 313/349/313 290/350/290
f 290/326/290 314/351/314 291/327/291
f 291/327/291 314/351/314 315/352/315
f 291/327/291 315/352/315 292/328/292
f 292/328/292 315/352/315 316/353/316
f 292/328/292 316/353/316 293/329/293
f 293/329/293 316/353/316 317/354/317
f 293/329/293 317/354/317 294/330/294
f 294/330/294 317/354/317 318/355/318
f 294/330/294 318/355/318 295/331/295
f 295/331/295 318/355/318 319/356/319
f 295/331/295 319/356/319 296/332/296
f 296/332/296 319/356/319 320/357/320
f 296/332/296 320/357/320 297/333/297
f 297/333/297 320/357/320 321/358/321
f 297/333/297 321/358/321 298/334/298
f 298/334/298 321/358/321 322/359/322
f 298/334/298 322/359/322 299/335/299
f 299/335/299 322/359/322 323/360/323
f 299/335/299 323/360/323 300/336/300
f 300/336/300 323/360/323 324/361/324
f 300/336/300 324/361/324 301/337/301
f 301/337/301 324/361/324 325/362/325
f 301/337/301 325/362/325 302/338/302
f 302/338/302 325/362/325 326/363/326
f 302/338/302 326/363/326 303/339/303
f 303/339/303 326/363/326 327/364/327
f 303/339/303 327/364/327 304/340/304
f 304/340/304 327/364/327 328/365/328
f 304/340/304 328/365/328 305/341/305
f 305/341/305 328/365/328 329/366/329
f 305/341/305 329/366/329 306/342/306
f 306/342/306 329/366/329 330/367/330
f 306/342/306 330/367/330 307/343/307
f 307/343/307 330/367/330 331/368/331
f 307/343/307 331/368/331 308/344/308
f 308/344/308 331/368/331 332/369/332
f 308/344/308 332/369/332 309/345/309
f 309/345/309 332/369/332 333/370/333
f 309/345/309 333/370/333 310/346/310
f 310/346/310 333/370/333 334/371/334
f 310/346/310 334/371/334 311/347/311
f 311/347/311 334/371/334 335/372/335
f 311/347/311 335/372/335 312/348/312
f 312/348/312 335/372/335 336/373/336
f 312/348/312 336/373/336 313/349/313
f 313/349/313 336/373/336 337/374/337
f 313/349/313 337/374/337 290/350/290
f 290/350/290 337/374/337 314/375/314
f 314/351/314 338/376/338 315/352/315
f 315/352/315 338/376/338 339/377/339
f 315/352/315 339/377/339 316/353/316
f 316/353/316 339/377/339 340/378/340
f 316/353/316 340/378/340 317/354/317
f 317/354/317 340/378/340 341/379/341
f 317/354/317 341/379/341 318/355/318
f 318/355/318 341/379/341 342/380/342
f 318/355/318 342/380/342 319/356/319
f 319/356/319 342/380/342 343/381/343
f 319/356/319 343/381/343 320/357/320
f 320/357/320 343/381/343 344/382/344
f 320/357/320 344/382/344 321/358/321
f 321/358/321 344/382/344 345/383/345
f 321/358/321 345/383/345 322/359/322
f 322/359/322 345/383/345 346/384/346
f 322/359/322 346/384/346 323/360/323
f 323/360/323 346/384/346 347/385/347
f 323/360/323 347/385/347 324/361/324
f 324/361/324 347/385/347 348/386/348
f 324/361/324 348/386/348 325/362/325
f 325/362/325 348/386/348 349/387/349
f 325/362/325 349/387/349 326/363/326
f 326/363/326 349/387/349 350/388/350
f 326/363/326 350/388/350 327/364/327
f 327/364/327 350/388/350 351/389/351
f 327/364/327 351/389/351 328/365/328
f 328/365/328 351/389/351 352/390/352
f 328/365/328 352/390/352 329/366/329
f 329/366/329 352/390/352 353/391/353
f 329/366/329 353/391/353 330/367/330
f 330/367/330 353/391/353 354/392/354
f 330/367/330 354/392/354 331/368/331
f 331/368/331 354/392/354 355/393/355
f 331/368/331 355/393/355 332/369/332
f 332/369/332 355/393/355 356/394/356
f 332/369/332 356/394/356 333/370/333
f 333/370/333 356/394/356 357/395/357
f 333/370/333 357/395/357 334/371/334
f 334/371/334 357/395/357 358/396/358
f 334/371/334 358/396/358 335/372/335
f 335/372/335 358/396/358 359/397/359
f 335/372/335 359/397/359 336/373/336
f 336/373/336 359/397/359 360/398/360
f 336/373/336 360/398/360 337/374/337
f 337/374/337 360/398/360 361/399/361
f 337/374/337 361/399/361 314/375/314
f 314/375/314 361/399/361 338/400/338
f 338/376/338 362/401/362 339/377/339
f 339/377/339 362/402/362 340/378/340
f 340/378/340 362/403/362 341/379/341
f 341/379/341 362/404/362 342/380/342
f 342/380/342 362/405/362 343/381/343
f 343/381/343 362/406/362 344/382/344
f 344/382/344 362/407/362 345/383/345
f 345/383/345 362/408/362 346/384/346
f 346/384/346 362/409/362 347/385/347
f 347/385/347 362/410/362 348/386/348
f 348/386/348 362/411/362 349/387/349
f 349/387/349 362/412/362 350/388/350
f 350/388/350 362/413/362 351/389/351
f 351/389/351 362/414/362 352/390/352
f 352/390/352 362/415/362 353/391/353
f 353/391/353 362/416/362 354/392/354
f 354/392/354 362/417/362 355/393/355
f 355/393/355 362/418/362 356/394/356
f 356/394/356 362/419/362 357/395/357
f 357/395/357 362/420/362 358/396/358
f 358/396/358 362/421/362 359/397/359
f 359/397/359 362/422/362 360/398/360
f 360/398/360 362/423/362 361/399/361
f 361/399/361 362/424/362 338/400/338
