mtllib select_panel.mtl
o SelectPanel

# Chamfered square prism. The existing LevelSelectScene scale values can be reused.
# Top ring (clockwise in XZ so top faces point +Y)
v 1.000000 1.000000 -0.800000
v 0.800000 1.000000 -1.000000
v -0.800000 1.000000 -1.000000
v -1.000000 1.000000 -0.800000
v -1.000000 1.000000 0.800000
v -0.800000 1.000000 1.000000
v 0.800000 1.000000 1.000000
v 1.000000 1.000000 0.800000
v 0.000000 1.000000 0.000000

# Bottom ring
v 1.000000 -1.000000 -0.800000
v 0.800000 -1.000000 -1.000000
v -0.800000 -1.000000 -1.000000
v -1.000000 -1.000000 -0.800000
v -1.000000 -1.000000 0.800000
v -0.800000 -1.000000 1.000000
v 0.800000 -1.000000 1.000000
v 1.000000 -1.000000 0.800000
v 0.000000 -1.000000 0.000000

# UVs for top surface
vt 1.000000 0.100000
vt 0.900000 0.000000
vt 0.100000 0.000000
vt 0.000000 0.100000
vt 0.000000 0.900000
vt 0.100000 1.000000
vt 0.900000 1.000000
vt 1.000000 0.900000
vt 0.500000 0.500000

# Simple UVs for side/bottom surfaces (sample darker center area)
vt 0.470000 0.470000
vt 0.530000 0.470000
vt 0.530000 0.530000
vt 0.470000 0.530000

vn 0.000000 1.000000 0.000000
vn 0.000000 -1.000000 0.000000
vn 0.707107 0.000000 -0.707107
vn 0.000000 0.000000 -1.000000
vn -0.707107 0.000000 -0.707107
vn -1.000000 0.000000 0.000000
vn -0.707107 0.000000 0.707107
vn 0.000000 0.000000 1.000000
vn 0.707107 0.000000 0.707107
vn 1.000000 0.000000 0.000000

usemtl SelectPanelMaterial

# Top
f 9/9/1 1/1/1 2/2/1
f 9/9/1 2/2/1 3/3/1
f 9/9/1 3/3/1 4/4/1
f 9/9/1 4/4/1 5/5/1
f 9/9/1 5/5/1 6/6/1
f 9/9/1 6/6/1 7/7/1
f 9/9/1 7/7/1 8/8/1
f 9/9/1 8/8/1 1/1/1

# Bottom
f 18/10/2 11/11/2 10/12/2
f 18/10/2 12/11/2 11/12/2
f 18/10/2 13/11/2 12/12/2
f 18/10/2 14/11/2 13/12/2
f 18/10/2 15/11/2 14/12/2
f 18/10/2 16/11/2 15/12/2
f 18/10/2 17/11/2 16/12/2
f 18/10/2 10/11/2 17/12/2

# Sides
f 1/10/3 10/11/3 2/13/3
f 10/11/3 11/12/3 2/13/3
f 2/10/4 11/11/4 3/13/4
f 11/11/4 12/12/4 3/13/4
f 3/10/5 12/11/5 4/13/5
f 12/11/5 13/12/5 4/13/5
f 4/10/6 13/11/6 5/13/6
f 13/11/6 14/12/6 5/13/6
f 5/10/7 14/11/7 6/13/7
f 14/11/7 15/12/7 6/13/7
f 6/10/8 15/11/8 7/13/8
f 15/11/8 16/12/8 7/13/8
f 7/10/9 16/11/9 8/13/9
f 16/11/9 17/12/9 8/13/9
f 8/10/10 17/11/10 1/13/10
f 17/11/10 10/12/10 1/13/10
